ISO-10303-21;
HEADER;
/* Generated by software containing ST-Developer
 * from STEP Tools, Inc. (www.steptools.com) 
 */

FILE_DESCRIPTION(
/* description */ (''),
/* implementation_level */ '2;1');

FILE_NAME(
/* name */ 'C:\\Users\\Lincoln\\Downloads\\DrillGuideV2.stp',
/* time_stamp */ '2026-06-04T13:33:58-07:00',
/* author */ ('Lincoln'),
/* organization */ (''),
/* preprocessor_version */ 'ST-DEVELOPER v20',
/* originating_system */ 'Autodesk Inventor 2022',
/* authorisation */ '');

FILE_SCHEMA (('AUTOMOTIVE_DESIGN { 1 0 10303 214 3 1 1 }'));
ENDSEC;

DATA;
#10=MECHANICAL_DESIGN_GEOMETRIC_PRESENTATION_REPRESENTATION('',(#13),#482);
#11=SHAPE_REPRESENTATION_RELATIONSHIP('SRR','None',#493,#12);
#12=ADVANCED_BREP_SHAPE_REPRESENTATION('',(#14),#481);
#13=STYLED_ITEM('',(#502),#14);
#14=MANIFOLD_SOLID_BREP('Solid1',#280);
#15=CYLINDRICAL_SURFACE('',#306,0.098);
#16=CYLINDRICAL_SURFACE('',#314,0.098);
#17=CYLINDRICAL_SURFACE('',#318,0.0335);
#18=CYLINDRICAL_SURFACE('',#320,0.0335);
#19=CYLINDRICAL_SURFACE('',#322,0.0335);
#20=CONICAL_SURFACE('',#304,0.049,1.02974425867665);
#21=CONICAL_SURFACE('',#312,0.049,1.02974425867665);
#22=FACE_BOUND('',#56,.T.);
#23=FACE_BOUND('',#61,.T.);
#24=FACE_BOUND('',#62,.T.);
#25=FACE_BOUND('',#63,.T.);
#26=FACE_BOUND('',#67,.T.);
#27=FACE_BOUND('',#75,.T.);
#28=FACE_BOUND('',#76,.T.);
#29=FACE_BOUND('',#77,.T.);
#30=CIRCLE('',#303,0.098);
#31=CIRCLE('',#305,0.098);
#32=CIRCLE('',#309,0.0335);
#33=CIRCLE('',#310,0.0335);
#34=CIRCLE('',#311,0.0335);
#35=CIRCLE('',#313,0.098);
#36=CIRCLE('',#315,0.098);
#37=CIRCLE('',#319,0.0335);
#38=CIRCLE('',#321,0.0335);
#39=CIRCLE('',#323,0.0335);
#40=FACE_OUTER_BOUND('',#55,.T.);
#41=FACE_OUTER_BOUND('',#57,.T.);
#42=FACE_OUTER_BOUND('',#58,.T.);
#43=FACE_OUTER_BOUND('',#59,.T.);
#44=FACE_OUTER_BOUND('',#60,.T.);
#45=FACE_OUTER_BOUND('',#64,.T.);
#46=FACE_OUTER_BOUND('',#65,.T.);
#47=FACE_OUTER_BOUND('',#66,.T.);
#48=FACE_OUTER_BOUND('',#68,.T.);
#49=FACE_OUTER_BOUND('',#69,.T.);
#50=FACE_OUTER_BOUND('',#70,.T.);
#51=FACE_OUTER_BOUND('',#71,.T.);
#52=FACE_OUTER_BOUND('',#72,.T.);
#53=FACE_OUTER_BOUND('',#73,.T.);
#54=FACE_OUTER_BOUND('',#74,.T.);
#55=EDGE_LOOP('',(#187,#188,#189,#190));
#56=EDGE_LOOP('',(#191));
#57=EDGE_LOOP('',(#192,#193,#194));
#58=EDGE_LOOP('',(#195,#196,#197,#198));
#59=EDGE_LOOP('',(#199,#200,#201,#202,#203,#204));
#60=EDGE_LOOP('',(#205,#206,#207,#208));
#61=EDGE_LOOP('',(#209));
#62=EDGE_LOOP('',(#210));
#63=EDGE_LOOP('',(#211));
#64=EDGE_LOOP('',(#212,#213,#214));
#65=EDGE_LOOP('',(#215,#216,#217,#218));
#66=EDGE_LOOP('',(#219,#220,#221,#222));
#67=EDGE_LOOP('',(#223));
#68=EDGE_LOOP('',(#224,#225,#226,#227,#228,#229));
#69=EDGE_LOOP('',(#230,#231,#232,#233));
#70=EDGE_LOOP('',(#234,#235,#236,#237));
#71=EDGE_LOOP('',(#238,#239,#240,#241));
#72=EDGE_LOOP('',(#242,#243,#244,#245));
#73=EDGE_LOOP('',(#246,#247,#248,#249));
#74=EDGE_LOOP('',(#250,#251,#252,#253));
#75=EDGE_LOOP('',(#254));
#76=EDGE_LOOP('',(#255));
#77=EDGE_LOOP('',(#256));
#78=LINE('',#408,#103);
#79=LINE('',#410,#104);
#80=LINE('',#412,#105);
#81=LINE('',#413,#106);
#82=LINE('',#420,#107);
#83=LINE('',#422,#108);
#84=LINE('',#425,#109);
#85=LINE('',#427,#110);
#86=LINE('',#429,#111);
#87=LINE('',#431,#112);
#88=LINE('',#432,#113);
#89=LINE('',#435,#114);
#90=LINE('',#436,#115);
#91=LINE('',#447,#116);
#92=LINE('',#451,#117);
#93=LINE('',#454,#118);
#94=LINE('',#455,#119);
#95=LINE('',#458,#120);
#96=LINE('',#460,#121);
#97=LINE('',#461,#122);
#98=LINE('',#464,#123);
#99=LINE('',#468,#124);
#100=LINE('',#472,#125);
#101=LINE('',#475,#126);
#102=LINE('',#477,#127);
#103=VECTOR('',#331,0.393700787401575);
#104=VECTOR('',#332,0.393700787401575);
#105=VECTOR('',#333,0.393700787401575);
#106=VECTOR('',#334,0.393700787401575);
#107=VECTOR('',#341,0.049);
#108=VECTOR('',#344,0.098);
#109=VECTOR('',#347,0.393700787401575);
#110=VECTOR('',#348,0.393700787401575);
#111=VECTOR('',#349,0.393700787401575);
#112=VECTOR('',#350,0.393700787401575);
#113=VECTOR('',#351,0.393700787401575);
#114=VECTOR('',#354,0.393700787401575);
#115=VECTOR('',#355,0.393700787401575);
#116=VECTOR('',#366,0.049);
#117=VECTOR('',#371,0.098);
#118=VECTOR('',#374,0.393700787401575);
#119=VECTOR('',#375,0.393700787401575);
#120=VECTOR('',#378,0.393700787401575);
#121=VECTOR('',#379,0.393700787401575);
#122=VECTOR('',#380,0.393700787401575);
#123=VECTOR('',#383,0.0335);
#124=VECTOR('',#388,0.0335);
#125=VECTOR('',#393,0.0335);
#126=VECTOR('',#398,0.393700787401575);
#127=VECTOR('',#401,0.393700787401575);
#128=VERTEX_POINT('',#406);
#129=VERTEX_POINT('',#407);
#130=VERTEX_POINT('',#409);
#131=VERTEX_POINT('',#411);
#132=VERTEX_POINT('',#414);
#133=VERTEX_POINT('',#417);
#134=VERTEX_POINT('',#419);
#135=VERTEX_POINT('',#424);
#136=VERTEX_POINT('',#426);
#137=VERTEX_POINT('',#428);
#138=VERTEX_POINT('',#430);
#139=VERTEX_POINT('',#434);
#140=VERTEX_POINT('',#437);
#141=VERTEX_POINT('',#439);
#142=VERTEX_POINT('',#441);
#143=VERTEX_POINT('',#444);
#144=VERTEX_POINT('',#446);
#145=VERTEX_POINT('',#449);
#146=VERTEX_POINT('',#453);
#147=VERTEX_POINT('',#457);
#148=VERTEX_POINT('',#459);
#149=VERTEX_POINT('',#463);
#150=VERTEX_POINT('',#467);
#151=VERTEX_POINT('',#471);
#152=EDGE_CURVE('',#128,#129,#78,.T.);
#153=EDGE_CURVE('',#130,#128,#79,.T.);
#154=EDGE_CURVE('',#131,#130,#80,.T.);
#155=EDGE_CURVE('',#129,#131,#81,.T.);
#156=EDGE_CURVE('',#132,#132,#30,.T.);
#157=EDGE_CURVE('',#133,#133,#31,.T.);
#158=EDGE_CURVE('',#133,#134,#82,.T.);
#159=EDGE_CURVE('',#132,#133,#83,.T.);
#160=EDGE_CURVE('',#135,#128,#84,.T.);
#161=EDGE_CURVE('',#135,#136,#85,.T.);
#162=EDGE_CURVE('',#137,#136,#86,.T.);
#163=EDGE_CURVE('',#137,#138,#87,.T.);
#164=EDGE_CURVE('',#138,#130,#88,.T.);
#165=EDGE_CURVE('',#129,#139,#89,.T.);
#166=EDGE_CURVE('',#139,#135,#90,.T.);
#167=EDGE_CURVE('',#140,#140,#32,.T.);
#168=EDGE_CURVE('',#141,#141,#33,.T.);
#169=EDGE_CURVE('',#142,#142,#34,.T.);
#170=EDGE_CURVE('',#143,#143,#35,.T.);
#171=EDGE_CURVE('',#143,#144,#91,.T.);
#172=EDGE_CURVE('',#145,#145,#36,.T.);
#173=EDGE_CURVE('',#145,#143,#92,.T.);
#174=EDGE_CURVE('',#146,#139,#93,.T.);
#175=EDGE_CURVE('',#136,#146,#94,.T.);
#176=EDGE_CURVE('',#147,#131,#95,.T.);
#177=EDGE_CURVE('',#147,#148,#96,.T.);
#178=EDGE_CURVE('',#148,#146,#97,.T.);
#179=EDGE_CURVE('',#140,#149,#98,.T.);
#180=EDGE_CURVE('',#149,#149,#37,.T.);
#181=EDGE_CURVE('',#141,#150,#99,.T.);
#182=EDGE_CURVE('',#150,#150,#38,.T.);
#183=EDGE_CURVE('',#142,#151,#100,.T.);
#184=EDGE_CURVE('',#151,#151,#39,.T.);
#185=EDGE_CURVE('',#138,#147,#101,.T.);
#186=EDGE_CURVE('',#148,#137,#102,.T.);
#187=ORIENTED_EDGE('',*,*,#152,.F.);
#188=ORIENTED_EDGE('',*,*,#153,.F.);
#189=ORIENTED_EDGE('',*,*,#154,.F.);
#190=ORIENTED_EDGE('',*,*,#155,.F.);
#191=ORIENTED_EDGE('',*,*,#156,.T.);
#192=ORIENTED_EDGE('',*,*,#157,.F.);
#193=ORIENTED_EDGE('',*,*,#158,.T.);
#194=ORIENTED_EDGE('',*,*,#158,.F.);
#195=ORIENTED_EDGE('',*,*,#156,.F.);
#196=ORIENTED_EDGE('',*,*,#159,.T.);
#197=ORIENTED_EDGE('',*,*,#157,.T.);
#198=ORIENTED_EDGE('',*,*,#159,.F.);
#199=ORIENTED_EDGE('',*,*,#153,.T.);
#200=ORIENTED_EDGE('',*,*,#160,.F.);
#201=ORIENTED_EDGE('',*,*,#161,.T.);
#202=ORIENTED_EDGE('',*,*,#162,.F.);
#203=ORIENTED_EDGE('',*,*,#163,.T.);
#204=ORIENTED_EDGE('',*,*,#164,.T.);
#205=ORIENTED_EDGE('',*,*,#152,.T.);
#206=ORIENTED_EDGE('',*,*,#165,.T.);
#207=ORIENTED_EDGE('',*,*,#166,.T.);
#208=ORIENTED_EDGE('',*,*,#160,.T.);
#209=ORIENTED_EDGE('',*,*,#167,.T.);
#210=ORIENTED_EDGE('',*,*,#168,.T.);
#211=ORIENTED_EDGE('',*,*,#169,.T.);
#212=ORIENTED_EDGE('',*,*,#170,.T.);
#213=ORIENTED_EDGE('',*,*,#171,.T.);
#214=ORIENTED_EDGE('',*,*,#171,.F.);
#215=ORIENTED_EDGE('',*,*,#172,.F.);
#216=ORIENTED_EDGE('',*,*,#173,.T.);
#217=ORIENTED_EDGE('',*,*,#170,.F.);
#218=ORIENTED_EDGE('',*,*,#173,.F.);
#219=ORIENTED_EDGE('',*,*,#166,.F.);
#220=ORIENTED_EDGE('',*,*,#174,.F.);
#221=ORIENTED_EDGE('',*,*,#175,.F.);
#222=ORIENTED_EDGE('',*,*,#161,.F.);
#223=ORIENTED_EDGE('',*,*,#172,.T.);
#224=ORIENTED_EDGE('',*,*,#155,.T.);
#225=ORIENTED_EDGE('',*,*,#176,.F.);
#226=ORIENTED_EDGE('',*,*,#177,.T.);
#227=ORIENTED_EDGE('',*,*,#178,.T.);
#228=ORIENTED_EDGE('',*,*,#174,.T.);
#229=ORIENTED_EDGE('',*,*,#165,.F.);
#230=ORIENTED_EDGE('',*,*,#167,.F.);
#231=ORIENTED_EDGE('',*,*,#179,.T.);
#232=ORIENTED_EDGE('',*,*,#180,.F.);
#233=ORIENTED_EDGE('',*,*,#179,.F.);
#234=ORIENTED_EDGE('',*,*,#168,.F.);
#235=ORIENTED_EDGE('',*,*,#181,.T.);
#236=ORIENTED_EDGE('',*,*,#182,.F.);
#237=ORIENTED_EDGE('',*,*,#181,.F.);
#238=ORIENTED_EDGE('',*,*,#169,.F.);
#239=ORIENTED_EDGE('',*,*,#183,.T.);
#240=ORIENTED_EDGE('',*,*,#184,.F.);
#241=ORIENTED_EDGE('',*,*,#183,.F.);
#242=ORIENTED_EDGE('',*,*,#154,.T.);
#243=ORIENTED_EDGE('',*,*,#164,.F.);
#244=ORIENTED_EDGE('',*,*,#185,.T.);
#245=ORIENTED_EDGE('',*,*,#176,.T.);
#246=ORIENTED_EDGE('',*,*,#175,.T.);
#247=ORIENTED_EDGE('',*,*,#178,.F.);
#248=ORIENTED_EDGE('',*,*,#186,.T.);
#249=ORIENTED_EDGE('',*,*,#162,.T.);
#250=ORIENTED_EDGE('',*,*,#177,.F.);
#251=ORIENTED_EDGE('',*,*,#185,.F.);
#252=ORIENTED_EDGE('',*,*,#163,.F.);
#253=ORIENTED_EDGE('',*,*,#186,.F.);
#254=ORIENTED_EDGE('',*,*,#180,.T.);
#255=ORIENTED_EDGE('',*,*,#182,.T.);
#256=ORIENTED_EDGE('',*,*,#184,.T.);
#257=PLANE('',#302);
#258=PLANE('',#307);
#259=PLANE('',#308);
#260=PLANE('',#316);
#261=PLANE('',#317);
#262=PLANE('',#324);
#263=PLANE('',#325);
#264=PLANE('',#326);
#265=ADVANCED_FACE('',(#40,#22),#257,.T.);
#266=ADVANCED_FACE('',(#41),#20,.F.);
#267=ADVANCED_FACE('',(#42),#15,.F.);
#268=ADVANCED_FACE('',(#43),#258,.T.);
#269=ADVANCED_FACE('',(#44,#23,#24,#25),#259,.T.);
#270=ADVANCED_FACE('',(#45),#21,.F.);
#271=ADVANCED_FACE('',(#46),#16,.F.);
#272=ADVANCED_FACE('',(#47,#26),#260,.F.);
#273=ADVANCED_FACE('',(#48),#261,.T.);
#274=ADVANCED_FACE('',(#49),#17,.F.);
#275=ADVANCED_FACE('',(#50),#18,.F.);
#276=ADVANCED_FACE('',(#51),#19,.F.);
#277=ADVANCED_FACE('',(#52),#262,.T.);
#278=ADVANCED_FACE('',(#53),#263,.T.);
#279=ADVANCED_FACE('',(#54,#27,#28,#29),#264,.F.);
#280=CLOSED_SHELL('',(#265,#266,#267,#268,#269,#270,#271,#272,#273,#274,
#275,#276,#277,#278,#279));
#281=DERIVED_UNIT_ELEMENT(#283,1.);
#282=DERIVED_UNIT_ELEMENT(#487,-3.);
#283=(
CONVERSION_BASED_UNIT('gram',#285)
MASS_UNIT()
NAMED_UNIT(#484)
);
#284=(
MASS_UNIT()
NAMED_UNIT(*)
SI_UNIT(.KILO.,.GRAM.)
);
#285=MASS_MEASURE_WITH_UNIT(MASS_MEASURE(0.001),#284);
#286=DERIVED_UNIT((#281,#282));
#287=MEASURE_REPRESENTATION_ITEM('density measure',
POSITIVE_RATIO_MEASURE(7.85),#286);
#288=PROPERTY_DEFINITION_REPRESENTATION(#293,#290);
#289=PROPERTY_DEFINITION_REPRESENTATION(#294,#291);
#290=REPRESENTATION('material name',(#292),#481);
#291=REPRESENTATION('density',(#287),#481);
#292=DESCRIPTIVE_REPRESENTATION_ITEM('Steel, Carbon','Steel, Carbon');
#293=PROPERTY_DEFINITION('material property','material name',#495);
#294=PROPERTY_DEFINITION('material property','density of part',#495);
#295=DATE_TIME_ROLE('creation_date');
#296=APPLIED_DATE_AND_TIME_ASSIGNMENT(#297,#295,(#495));
#297=DATE_AND_TIME(#298,#299);
#298=CALENDAR_DATE(2023,4,12);
#299=LOCAL_TIME(0,0,0.,#300);
#300=COORDINATED_UNIVERSAL_TIME_OFFSET(0,0,.BEHIND.);
#301=AXIS2_PLACEMENT_3D('placement',#404,#327,#328);
#302=AXIS2_PLACEMENT_3D('',#405,#329,#330);
#303=AXIS2_PLACEMENT_3D('',#415,#335,#336);
#304=AXIS2_PLACEMENT_3D('',#416,#337,#338);
#305=AXIS2_PLACEMENT_3D('',#418,#339,#340);
#306=AXIS2_PLACEMENT_3D('',#421,#342,#343);
#307=AXIS2_PLACEMENT_3D('',#423,#345,#346);
#308=AXIS2_PLACEMENT_3D('',#433,#352,#353);
#309=AXIS2_PLACEMENT_3D('',#438,#356,#357);
#310=AXIS2_PLACEMENT_3D('',#440,#358,#359);
#311=AXIS2_PLACEMENT_3D('',#442,#360,#361);
#312=AXIS2_PLACEMENT_3D('',#443,#362,#363);
#313=AXIS2_PLACEMENT_3D('',#445,#364,#365);
#314=AXIS2_PLACEMENT_3D('',#448,#367,#368);
#315=AXIS2_PLACEMENT_3D('',#450,#369,#370);
#316=AXIS2_PLACEMENT_3D('',#452,#372,#373);
#317=AXIS2_PLACEMENT_3D('',#456,#376,#377);
#318=AXIS2_PLACEMENT_3D('',#462,#381,#382);
#319=AXIS2_PLACEMENT_3D('',#465,#384,#385);
#320=AXIS2_PLACEMENT_3D('',#466,#386,#387);
#321=AXIS2_PLACEMENT_3D('',#469,#389,#390);
#322=AXIS2_PLACEMENT_3D('',#470,#391,#392);
#323=AXIS2_PLACEMENT_3D('',#473,#394,#395);
#324=AXIS2_PLACEMENT_3D('',#474,#396,#397);
#325=AXIS2_PLACEMENT_3D('',#476,#399,#400);
#326=AXIS2_PLACEMENT_3D('',#478,#402,#403);
#327=DIRECTION('axis',(0.,0.,1.));
#328=DIRECTION('refdir',(1.,0.,0.));
#329=DIRECTION('center_axis',(3.02828769509223E-16,0.5,-0.866025403784439));
#330=DIRECTION('ref_axis',(1.57354444435062E-16,-0.866025403784438,-0.5));
#331=DIRECTION('',(-1.,0.,-3.49676543189026E-16));
#332=DIRECTION('',(1.57354444435062E-16,0.866025403784438,0.5));
#333=DIRECTION('',(1.,-6.05657539018445E-16,0.));
#334=DIRECTION('',(-1.04902962956708E-16,-0.866025403784438,-0.5));
#335=DIRECTION('center_axis',(-3.02828769509223E-16,-0.5,0.866025403784439));
#336=DIRECTION('ref_axis',(1.,-3.78535961886529E-17,3.27821759239712E-16));
#337=DIRECTION('center_axis',(3.02828769509223E-16,0.5,-0.866025403784439));
#338=DIRECTION('ref_axis',(1.,-3.78535961886529E-17,3.27821759239712E-16));
#339=DIRECTION('center_axis',(-3.02828769509223E-16,-0.5,0.866025403784439));
#340=DIRECTION('ref_axis',(1.,-3.78535961886529E-17,3.27821759239712E-16));
#341=DIRECTION('',(0.857167300702112,-0.257519037455027,0.44603605678834));
#342=DIRECTION('center_axis',(-3.02828769509223E-16,-0.5,0.866025403784439));
#343=DIRECTION('ref_axis',(1.,-3.78535961886529E-17,3.27821759239712E-16));
#344=DIRECTION('',(-3.02828769509223E-16,-0.5,0.866025403784438));
#345=DIRECTION('center_axis',(1.,0.,-3.14708888870123E-16));
#346=DIRECTION('ref_axis',(-3.14708888870123E-16,0.,-1.));
#347=DIRECTION('',(-3.14708888870123E-16,0.,-1.));
#348=DIRECTION('',(1.57354444435062E-16,-0.866025403784438,0.5));
#349=DIRECTION('',(0.,1.,0.));
#350=DIRECTION('',(-3.14708888870123E-16,0.,-1.));
#351=DIRECTION('',(0.,1.,0.));
#352=DIRECTION('center_axis',(0.,1.,0.));
#353=DIRECTION('ref_axis',(0.,0.,1.));
#354=DIRECTION('',(2.09805925913415E-16,0.,1.));
#355=DIRECTION('',(1.,0.,-3.49676543189026E-16));
#356=DIRECTION('center_axis',(0.,-1.,0.));
#357=DIRECTION('ref_axis',(1.,0.,0.));
#358=DIRECTION('center_axis',(0.,-1.,0.));
#359=DIRECTION('ref_axis',(1.,0.,0.));
#360=DIRECTION('center_axis',(0.,-1.,0.));
#361=DIRECTION('ref_axis',(1.,0.,0.));
#362=DIRECTION('center_axis',(3.02828769509223E-16,0.5,0.866025403784439));
#363=DIRECTION('ref_axis',(1.,-3.78535961886529E-17,-3.27821759239712E-16));
#364=DIRECTION('center_axis',(3.02828769509223E-16,0.5,0.866025403784439));
#365=DIRECTION('ref_axis',(1.,-3.78535961886529E-17,-3.27821759239712E-16));
#366=DIRECTION('',(0.857167300702112,-0.257519037455027,-0.44603605678834));
#367=DIRECTION('center_axis',(3.02828769509223E-16,0.5,0.866025403784439));
#368=DIRECTION('ref_axis',(1.,-3.78535961886529E-17,-3.27821759239712E-16));
#369=DIRECTION('center_axis',(-3.02828769509223E-16,-0.5,-0.866025403784439));
#370=DIRECTION('ref_axis',(1.,-3.78535961886529E-17,-3.27821759239712E-16));
#371=DIRECTION('',(-3.02828769509223E-16,-0.5,-0.866025403784438));
#372=DIRECTION('center_axis',(-3.02828769509223E-16,-0.5,-0.866025403784439));
#373=DIRECTION('ref_axis',(1.57354444435062E-16,-0.866025403784438,0.5));
#374=DIRECTION('',(-1.04902962956708E-16,0.866025403784438,-0.5));
#375=DIRECTION('',(-1.,4.54243154263834E-16,8.74191357972564E-17));
#376=DIRECTION('center_axis',(-1.,0.,2.09805925913415E-16));
#377=DIRECTION('ref_axis',(2.09805925913415E-16,0.,1.));
#378=DIRECTION('',(0.,1.,0.));
#379=DIRECTION('',(2.09805925913415E-16,0.,1.));
#380=DIRECTION('',(0.,1.,0.));
#381=DIRECTION('center_axis',(0.,1.,0.));
#382=DIRECTION('ref_axis',(1.,0.,0.));
#383=DIRECTION('',(0.,-1.,0.));
#384=DIRECTION('center_axis',(0.,1.,0.));
#385=DIRECTION('ref_axis',(1.,0.,0.));
#386=DIRECTION('center_axis',(0.,1.,0.));
#387=DIRECTION('ref_axis',(1.,0.,0.));
#388=DIRECTION('',(0.,-1.,0.));
#389=DIRECTION('center_axis',(0.,1.,0.));
#390=DIRECTION('ref_axis',(1.,0.,0.));
#391=DIRECTION('center_axis',(0.,1.,0.));
#392=DIRECTION('ref_axis',(1.,0.,0.));
#393=DIRECTION('',(0.,-1.,0.));
#394=DIRECTION('center_axis',(0.,1.,0.));
#395=DIRECTION('ref_axis',(1.,0.,0.));
#396=DIRECTION('center_axis',(0.,0.,-1.));
#397=DIRECTION('ref_axis',(-1.,0.,0.));
#398=DIRECTION('',(-1.,0.,0.));
#399=DIRECTION('center_axis',(8.74191357972564E-17,0.,1.));
#400=DIRECTION('ref_axis',(1.,0.,-8.74191357972564E-17));
#401=DIRECTION('',(1.,0.,-8.74191357972564E-17));
#402=DIRECTION('center_axis',(0.,1.,0.));
#403=DIRECTION('ref_axis',(0.,0.,1.));
#404=CARTESIAN_POINT('',(0.,0.,0.));
#405=CARTESIAN_POINT('Origin',(0.224409448818898,1.34273743614131,-0.167312827847122));
#406=CARTESIAN_POINT('',(0.224409448818898,1.,-0.365192378864668));
#407=CARTESIAN_POINT('',(-0.775590551181102,1.,-0.365192378864668));
#408=CARTESIAN_POINT('',(-0.0255905511811023,1.,-0.365192378864668));
#409=CARTESIAN_POINT('',(0.224409448818898,0.55,-0.625));
#410=CARTESIAN_POINT('',(0.224409448818897,1.01075165675329,-0.358984906943921));
#411=CARTESIAN_POINT('',(-0.775590551181102,0.55,-0.625));
#412=CARTESIAN_POINT('',(0.224409448818897,0.549999999999999,-0.625));
#413=CARTESIAN_POINT('',(-0.775590551181103,0.740118718070654,-0.515234906943921));
#414=CARTESIAN_POINT('',(-0.373590551181102,0.775,-0.495096189432334));
#415=CARTESIAN_POINT('Origin',(-0.275590551181102,0.775,-0.495096189432334));
#416=CARTESIAN_POINT('Origin',(-0.275590551181102,0.560278914833825,-0.123188360468194));
#417=CARTESIAN_POINT('',(-0.373590551181103,0.575,-0.148686027918558));
#418=CARTESIAN_POINT('Origin',(-0.275590551181102,0.575,-0.148686027918558));
#419=CARTESIAN_POINT('',(-0.275590551181102,0.545557829667649,-0.0976906930178303));
#420=CARTESIAN_POINT('',(-0.324590551181102,0.560278914833825,-0.123188360468194));
#421=CARTESIAN_POINT('Origin',(-0.275590551181102,0.675,-0.321891108675446));
#422=CARTESIAN_POINT('',(-0.373590551181102,0.675,-0.321891108675446));
#423=CARTESIAN_POINT('Origin',(0.224409448818898,0.,0.625));
#424=CARTESIAN_POINT('',(0.224409448818898,1.,0.365192378864668));
#425=CARTESIAN_POINT('',(0.224409448818898,1.,0.625));
#426=CARTESIAN_POINT('',(0.224409448818898,0.55,0.625));
#427=CARTESIAN_POINT('',(0.224409448818898,0.740118718070654,0.515234906943921));
#428=CARTESIAN_POINT('',(0.224409448818898,0.,0.625));
#429=CARTESIAN_POINT('',(0.224409448818898,0.,0.625));
#430=CARTESIAN_POINT('',(0.224409448818897,0.,-0.625));
#431=CARTESIAN_POINT('',(0.224409448818898,0.,0.625));
#432=CARTESIAN_POINT('',(0.224409448818897,0.,-0.625));
#433=CARTESIAN_POINT('Origin',(-0.275590551181102,1.,0.));
#434=CARTESIAN_POINT('',(-0.775590551181102,1.,0.365192378864668));
#435=CARTESIAN_POINT('',(-0.775590551181102,1.,-0.625));
#436=CARTESIAN_POINT('',(-0.0255905511811023,1.,0.365192378864668));
#437=CARTESIAN_POINT('',(-0.309090551181102,1.,4.10256677714363E-18));
#438=CARTESIAN_POINT('Origin',(-0.275590551181102,1.,0.));
#439=CARTESIAN_POINT('',(-0.0335,1.,4.10256677714363E-18));
#440=CARTESIAN_POINT('Origin',(0.,1.,0.));
#441=CARTESIAN_POINT('',(-0.584681102362205,1.,4.10256677714363E-18));
#442=CARTESIAN_POINT('Origin',(-0.551181102362205,1.,0.));
#443=CARTESIAN_POINT('Origin',(-0.275590551181102,0.560278914833825,0.123188360468194));
#444=CARTESIAN_POINT('',(-0.373590551181103,0.575,0.148686027918558));
#445=CARTESIAN_POINT('Origin',(-0.275590551181102,0.575,0.148686027918558));
#446=CARTESIAN_POINT('',(-0.275590551181102,0.545557829667649,0.0976906930178303));
#447=CARTESIAN_POINT('',(-0.324590551181102,0.560278914833825,0.123188360468194));
#448=CARTESIAN_POINT('Origin',(-0.275590551181102,0.675,0.321891108675446));
#449=CARTESIAN_POINT('',(-0.373590551181102,0.775,0.495096189432334));
#450=CARTESIAN_POINT('Origin',(-0.275590551181102,0.775,0.495096189432334));
#451=CARTESIAN_POINT('',(-0.373590551181102,0.675,0.321891108675446));
#452=CARTESIAN_POINT('Origin',(0.224409448818898,1.34273743614131,0.167312827847122));
#453=CARTESIAN_POINT('',(-0.775590551181102,0.55,0.625));
#454=CARTESIAN_POINT('',(-0.775590551181102,1.01075165675329,0.358984906943921));
#455=CARTESIAN_POINT('',(-0.275590551181102,0.55,0.625));
#456=CARTESIAN_POINT('Origin',(-0.775590551181102,0.,-0.625));
#457=CARTESIAN_POINT('',(-0.775590551181102,0.,-0.625));
#458=CARTESIAN_POINT('',(-0.775590551181102,0.,-0.625));
#459=CARTESIAN_POINT('',(-0.775590551181102,0.,0.625));
#460=CARTESIAN_POINT('',(-0.775590551181102,0.,-0.625));
#461=CARTESIAN_POINT('',(-0.775590551181102,0.,0.625));
#462=CARTESIAN_POINT('Origin',(-0.275590551181102,-0.887458608817687,0.));
#463=CARTESIAN_POINT('',(-0.309090551181102,0.,4.10256677714363E-18));
#464=CARTESIAN_POINT('',(-0.309090551181102,-0.887458608817687,4.10256677714363E-18));
#465=CARTESIAN_POINT('Origin',(-0.275590551181102,0.,0.));
#466=CARTESIAN_POINT('Origin',(0.,-0.887458608817687,0.));
#467=CARTESIAN_POINT('',(-0.0335,0.,4.10256677714363E-18));
#468=CARTESIAN_POINT('',(-0.0335,-0.887458608817687,4.10256677714363E-18));
#469=CARTESIAN_POINT('Origin',(0.,0.,0.));
#470=CARTESIAN_POINT('Origin',(-0.551181102362205,-0.887458608817687,0.));
#471=CARTESIAN_POINT('',(-0.584681102362205,0.,4.10256677714363E-18));
#472=CARTESIAN_POINT('',(-0.584681102362205,-0.887458608817687,4.10256677714363E-18));
#473=CARTESIAN_POINT('Origin',(-0.551181102362205,0.,0.));
#474=CARTESIAN_POINT('Origin',(0.224409448818897,0.,-0.625));
#475=CARTESIAN_POINT('',(0.224409448818897,0.,-0.625));
#476=CARTESIAN_POINT('Origin',(-0.775590551181102,0.,0.625));
#477=CARTESIAN_POINT('',(-0.775590551181102,0.,0.625));
#478=CARTESIAN_POINT('Origin',(-0.275590551181102,0.,-4.37095678986282E-17));
#479=UNCERTAINTY_MEASURE_WITH_UNIT(LENGTH_MEASURE(0.000393700787401575),
#485,'DISTANCE_ACCURACY_VALUE',
'Maximum model space distance between geometric entities at asserted c
onnectivities');
#480=UNCERTAINTY_MEASURE_WITH_UNIT(LENGTH_MEASURE(0.000393700787401575),
#485,'DISTANCE_ACCURACY_VALUE',
'Maximum model space distance between geometric entities at asserted c
onnectivities');
#481=(
GEOMETRIC_REPRESENTATION_CONTEXT(3)
GLOBAL_UNCERTAINTY_ASSIGNED_CONTEXT((#479))
GLOBAL_UNIT_ASSIGNED_CONTEXT((#485,#489,#490))
REPRESENTATION_CONTEXT('','3D')
);
#482=(
GEOMETRIC_REPRESENTATION_CONTEXT(3)
GLOBAL_UNCERTAINTY_ASSIGNED_CONTEXT((#480))
GLOBAL_UNIT_ASSIGNED_CONTEXT((#485,#489,#490))
REPRESENTATION_CONTEXT('','3D')
);
#483=DIMENSIONAL_EXPONENTS(1.,0.,0.,0.,0.,0.,0.);
#484=DIMENSIONAL_EXPONENTS(1.,0.,0.,0.,0.,0.,0.);
#485=(
CONVERSION_BASED_UNIT('inch',#488)
LENGTH_UNIT()
NAMED_UNIT(#483)
);
#486=(
LENGTH_UNIT()
NAMED_UNIT(*)
SI_UNIT(.MILLI.,.METRE.)
);
#487=(
LENGTH_UNIT()
NAMED_UNIT(*)
SI_UNIT(.CENTI.,.METRE.)
);
#488=LENGTH_MEASURE_WITH_UNIT(LENGTH_MEASURE(25.4),#486);
#489=(
NAMED_UNIT(*)
PLANE_ANGLE_UNIT()
SI_UNIT($,.RADIAN.)
);
#490=(
NAMED_UNIT(*)
SI_UNIT($,.STERADIAN.)
SOLID_ANGLE_UNIT()
);
#491=SHAPE_DEFINITION_REPRESENTATION(#492,#493);
#492=PRODUCT_DEFINITION_SHAPE('',$,#495);
#493=SHAPE_REPRESENTATION('',(#301),#481);
#494=PRODUCT_DEFINITION_CONTEXT('part definition',#499,'design');
#495=PRODUCT_DEFINITION('DrillGuideV2','DrillGuideV2',#496,#494);
#496=PRODUCT_DEFINITION_FORMATION('',$,#501);
#497=PRODUCT_RELATED_PRODUCT_CATEGORY('DrillGuideV2','DrillGuideV2',(#501));
#498=APPLICATION_PROTOCOL_DEFINITION('international standard',
'automotive_design',2009,#499);
#499=APPLICATION_CONTEXT(
'Core Data for Automotive Mechanical Design Process');
#500=PRODUCT_CONTEXT('part definition',#499,'mechanical');
#501=PRODUCT('DrillGuideV2','DrillGuideV2',$,(#500));
#502=PRESENTATION_STYLE_ASSIGNMENT((#503));
#503=SURFACE_STYLE_USAGE(.BOTH.,#506);
#504=SURFACE_STYLE_RENDERING_WITH_PROPERTIES($,#510,(#505));
#505=SURFACE_STYLE_TRANSPARENT(0.);
#506=SURFACE_SIDE_STYLE('',(#507,#504));
#507=SURFACE_STYLE_FILL_AREA(#508);
#508=FILL_AREA_STYLE('',(#509));
#509=FILL_AREA_STYLE_COLOUR('',#510);
#510=COLOUR_RGB('',0.745098039215686,0.737254901960784,0.729411764705882);
ENDSEC;
END-ISO-10303-21;
